<svg xmlns="http://www.w3.org/2000/svg" viewBox="0 0 95.98 96.01"><defs><style>.cls-1{fill:none;}.cls-2{fill:#3c55e6;}</style></defs><g id="Layer_2" data-name="Layer 2"><g id="Layer_1-2" data-name="Layer 1"><rect class="cls-1" width="95.98" height="96.01"/><path class="cls-2" d="M31.18,59a15.06,15.06,0,0,0-9.52.45,15,15,0,0,0-7.6,5.76c-2.92,4.53-1.3,9,3.85,10.66,6,1.84,13.78-1,17.15-6.21,2.92-4.56,1.31-9-3.88-10.66ZM44.62,47.88l-5.39,6.91A13.6,13.6,0,0,1,44,63.58h9.16a16.71,16.71,0,0,1,1.36-2.52C59.75,53,71.12,48.81,80.33,51.7c10,3.09,13.64,13.24,8,22a23.73,23.73,0,0,1-25.8,9.35c-5.64-1.75-9.86-6-10.57-11.87H42.8a16.71,16.71,0,0,1-1.36,2.52,22.82,22.82,0,0,1-11.39,8.79,22.65,22.65,0,0,1-14.37.56C5.7,80,2,69.85,7.68,61.06c5-7.77,15.62-11.85,24.58-9.7l5.38-6.91c-5.75-4.85-6.29-12.62-2.21-18.91C40.62,17.43,52,13.29,61.2,16.16c10,3.12,13.66,13.26,8,22A22.71,22.71,0,0,1,57.8,47a23.18,23.18,0,0,1-13.18.88Z"/></g></g></svg>