<svg xmlns="http://www.w3.org/2000/svg" viewBox="0 0 96.01 96.01"><defs><style>.cls-1{fill:none;}.cls-2{fill:#3c55e6;fill-rule:evenodd;}</style></defs><g id="Layer_2" data-name="Layer 2"><g id="Layer_1-2" data-name="Layer 1"><rect class="cls-1" width="96.01" height="96.01"/><path class="cls-2" d="M29.2,31.07l24.32,0A42.2,42.2,0,0,1,75.29,18.82,32.25,32.25,0,0,1,81.21,18a3.92,3.92,0,0,1,3.91,3.91V69.25A4,4,0,0,1,82,73.08a37.22,37.22,0,0,1-21.63-1.76A25.61,25.61,0,0,1,50,63.5H34.78L29.62,80.31a3.92,3.92,0,0,1-4.82,2.58,3.81,3.81,0,0,1-2.52-4.77L26.79,63.5H24.6a18.64,18.64,0,0,1-9.29-2.56A13.42,13.42,0,0,1,8.59,49.07c.2-9.75,11.22-18,20.61-18ZM63.41,64.15A28.47,28.47,0,0,0,77.3,65.93V26.39c-8.22,1.76-16.24,6.35-20.86,13.55-6.21,9.64-3.32,19.87,7,24.21Z"/></g></g></svg>