<svg xmlns="http://www.w3.org/2000/svg" viewBox="0 0 96.01 96.01"><defs><style>.cls-1{fill:none;}.cls-2,.cls-3{fill:#3c55e6;}.cls-3{fill-rule:evenodd;}</style></defs><g id="Layer_2" data-name="Layer 2"><g id="Layer_1-2" data-name="Layer 1"><rect class="cls-1" width="96.01" height="96.01"/><path class="cls-2" d="M17.26,84.5a3.81,3.81,0,0,1,0-7.62h9.41l2.56-14.06a28.86,28.86,0,0,0,7.65.28L33.62,81a3.79,3.79,0,0,1-3.77,3.46ZM72,64.66C79.46,67,84.1,73.59,82.6,81.24a3.79,3.79,0,0,1-3.77,3.26H46.94a3.8,3.8,0,0,1-3.71-4.59C45.78,68,60.86,61.17,72,64.66Z"/><path class="cls-3" d="M60.32,16.33C57.54,8.7,47.2,5.44,37.16,9.1c-9.47,3.43-15.25,11.79-13.49,19.16-8.36,6-12.53,15.22-9.61,23.22,2.21,6.09,8,10.09,15.17,11.34l3.65-20.39a3.81,3.81,0,0,1,7.49,1.37L36.88,63.1a33.7,33.7,0,0,0,8.36-1.87C58.73,56.32,66.67,44,62.93,33.76a15.73,15.73,0,0,0-4.11-6.15,13,13,0,0,0,1.5-11.28Z"/></g></g></svg>